<?xml version="1.0" standalone="no"?>
<!DOCTYPE svg PUBLIC "-//W3C//DTD SVG 20010904//EN"
 "http://www.w3.org/TR/2001/REC-SVG-20010904/DTD/svg10.dtd">
<svg version="1.0" xmlns="http://www.w3.org/2000/svg"
 width="1097.000000pt" height="1280.000000pt" viewBox="0 0 1097.000000 1280.000000"
 preserveAspectRatio="xMidYMid meet">
<metadata>
Created by potrace 1.15, written by Peter Selinger 2001-2017
</metadata>
<g transform="translate(0.000000,1280.000000) scale(0.100000,-0.100000)"
fill="#000000" stroke="none">
<path d="M5452 12610 c-23 -17 -42 -33 -42 -36 0 -3 20 9 45 27 41 30 51 39
42 39 -2 0 -23 -14 -45 -30z"/>
<path d="M5452 12564 c-12 -8 -21 -18 -19 -22 1 -4 -12 -22 -29 -39 -34 -35
-40 -25 -12 16 20 28 13 48 -10 29 -22 -19 -72 -89 -72 -102 1 -6 10 0 20 13
11 13 20 19 20 14 0 -13 -40 -49 -49 -44 -11 6 -67 -139 -91 -236 l-23 -92
-75 80 c-41 44 -84 85 -96 91 -19 10 -20 10 -7 -6 12 -14 12 -16 -3 -10 -9 4
-23 19 -32 35 -8 16 -17 29 -19 29 -14 0 -1 -34 30 -80 20 -29 34 -55 32 -57
-3 -2 -11 7 -20 20 -11 17 -23 24 -41 22 -14 -2 -31 4 -38 13 -12 15 -11 16 5
3 13 -10 17 -10 17 -1 0 9 4 9 17 -1 15 -13 15 -12 5 8 -15 28 -34 40 -25 16
6 -17 5 -16 -16 1 -13 12 -19 26 -16 35 3 8 3 12 -1 8 -4 -4 -16 1 -26 10 -15
14 -19 14 -16 3 2 -9 -3 -14 -11 -12 -7 2 8 -21 34 -50 26 -29 52 -52 57 -50
5 1 7 -1 4 -6 -3 -5 2 -18 10 -28 9 -10 12 -12 8 -4 -5 11 -4 12 5 4 6 -6 13
-20 16 -32 2 -12 16 -42 31 -67 14 -25 25 -48 23 -50 -3 -2 -28 11 -57 30 -77
48 -198 76 -303 69 -99 -6 -218 -30 -274 -55 l-40 -18 45 7 c61 9 163 7 184
-5 12 -6 -5 -9 -56 -10 -47 0 -92 -7 -126 -19 l-53 -20 103 2 c70 2 92 0 68
-5 l-35 -8 35 -3 c19 -2 50 -3 67 -1 43 3 166 -34 221 -65 23 -14 42 -22 42
-19 0 4 20 -8 44 -25 47 -34 109 -115 103 -134 -2 -6 -11 3 -20 20 -22 43 -62
89 -100 116 -29 20 -28 18 12 -27 58 -67 77 -105 59 -116 -7 -5 -20 -9 -28 -9
-8 -1 -31 -9 -50 -20 -26 -14 -30 -19 -15 -19 11 0 31 6 45 14 28 16 70 20 70
6 0 -5 2 -16 6 -24 4 -11 -7 -16 -43 -21 -26 -3 -55 -11 -63 -17 -11 -7 -3 -8
28 -4 36 6 41 5 36 -10 -4 -8 -3 -15 2 -13 5 2 20 -5 34 -15 l24 -17 -24 0
c-20 0 -22 -2 -10 -10 12 -8 12 -10 -5 -11 l-20 0 20 -8 c11 -5 27 -6 35 -3 8
2 -8 -12 -36 -31 -28 -20 -69 -56 -92 -82 l-40 -46 -104 27 c-310 79 -461 83
-608 14 -25 -11 -34 -18 -20 -14 14 3 59 8 100 9 l75 4 -65 -9 c-36 -4 -77
-13 -91 -18 -15 -6 -29 -8 -32 -5 -3 2 -13 1 -22 -5 -16 -8 -16 -9 -1 -15 10
-4 15 -3 12 2 -3 4 9 8 27 9 18 1 43 4 57 7 52 11 156 14 135 4 -17 -8 -16 -9
8 -6 15 3 27 0 27 -5 0 -6 -22 -7 -52 -3 -38 5 -63 2 -88 -9 l-35 -16 45 6
c67 10 38 -10 -45 -30 -38 -9 -73 -20 -77 -24 -5 -5 24 0 64 10 48 12 75 15
82 8 7 -7 0 -10 -19 -10 -17 -1 -41 -8 -55 -16 -18 -11 -19 -13 -5 -9 95 30
262 31 318 2 l28 -15 -25 -6 c-14 -3 -40 -19 -58 -35 -18 -16 -57 -43 -85 -61
-29 -17 -53 -36 -53 -42 0 -5 12 0 26 11 15 12 32 21 38 21 12 0 -64 -55 -77
-55 -16 0 -87 -79 -83 -92 3 -8 2 -12 -3 -9 -10 7 -126 -166 -175 -260 -68
-133 -98 -179 -150 -234 -186 -197 -379 -537 -452 -795 -23 -78 -23 -236 -2
-285 l16 -35 -1 35 c-1 69 25 236 49 315 31 101 103 242 104 204 0 -14 -13
-58 -29 -96 -16 -39 -34 -94 -40 -122 -13 -63 -14 -211 -1 -266 6 -27 4 -73
-7 -150 -21 -147 -12 -357 21 -515 22 -106 49 -317 75 -596 12 -119 6 -425
-10 -564 -5 -47 -24 -159 -42 -250 -31 -161 -32 -171 -31 -430 1 -501 67 -837
229 -1166 l64 -132 -19 -67 c-11 -38 -17 -71 -15 -76 7 -10 -47 -50 -111 -82
-79 -40 -249 -157 -354 -244 -52 -44 -129 -102 -172 -131 -116 -78 -185 -148
-353 -356 -150 -186 -220 -268 -350 -411 -87 -97 -198 -244 -260 -347 -40 -66
-115 -194 -117 -199 -2 -3 -79 -50 -173 -104 -587 -337 -862 -592 -967 -895
-54 -155 -73 -403 -44 -585 40 -264 152 -505 313 -675 48 -52 61 -71 56 -88
-13 -52 36 -112 93 -112 12 0 56 -16 98 -36 48 -23 85 -35 101 -32 18 4 26 0
30 -13 5 -16 17 -19 71 -19 l64 0 0 -92 c0 -51 -5 -144 -10 -207 -6 -63 -14
-181 -19 -262 -8 -138 -11 -151 -35 -179 -51 -62 -94 -276 -81 -407 l7 -63
2463 0 2463 0 22 73 c29 100 34 108 37 67 2 -19 6 -59 9 -87 l5 -53 980 0 980
0 -2 103 c-1 56 -10 147 -20 202 -48 283 -52 316 -45 387 3 40 10 132 15 203
18 249 37 348 86 459 59 135 64 160 63 306 -1 117 1 133 35 245 48 157 60 256
51 425 -12 208 -9 378 9 406 9 15 -9 86 -25 95 -19 12 -16 14 -113 -45 -50
-29 -91 -52 -93 -51 -4 3 35 390 53 535 9 69 18 206 21 305 5 189 6 194 61
250 12 13 124 174 158 229 11 18 40 63 65 102 58 90 73 117 110 189 17 33 41
80 54 105 13 25 31 61 39 80 8 19 29 65 46 103 17 37 31 70 31 72 0 3 18 44
40 91 22 47 40 89 40 92 0 4 6 19 14 33 12 24 23 58 32 104 2 10 -4 31 -12 45
-19 30 -82 90 -94 90 -5 0 -19 15 -31 33 -25 35 -98 102 -112 102 -5 0 -15 8
-22 19 -8 10 -21 16 -29 13 -8 -3 -20 1 -26 9 -7 8 -21 14 -31 14 -10 0 -21 5
-25 11 -3 6 -17 9 -31 6 -16 -3 -27 1 -30 10 -4 10 -14 12 -30 8 -13 -3 -29
-2 -36 2 -7 4 -19 8 -27 8 -34 1 -213 50 -215 60 -2 5 -6 22 -9 37 -3 14 -17
40 -31 56 -16 19 -25 42 -25 63 0 49 -10 58 -76 70 -34 6 -67 19 -77 30 -10
10 -25 19 -33 19 -8 0 -28 10 -45 23 -25 18 -47 23 -122 26 -55 3 -80 7 -63
10 16 3 31 12 33 18 10 29 -50 38 -272 37 -243 0 -394 -16 -560 -59 -65 -17
-101 -22 -105 -15 -26 42 -104 281 -130 400 -18 80 -47 204 -66 275 -39 154
-65 331 -99 670 -14 138 -34 311 -44 385 -15 114 -16 137 -4 150 12 13 15 13
24 0 9 -13 10 -13 6 0 -2 8 8 31 23 50 52 69 140 216 169 286 73 172 113 418
93 568 -21 161 -70 229 -165 230 l-49 1 4 77 c3 42 9 83 15 90 13 17 33 243
33 374 0 230 -63 532 -146 696 -19 37 -34 72 -34 77 0 5 11 12 24 15 13 3 27
13 30 22 9 24 -12 82 -34 94 -26 14 -59 118 -41 129 10 7 11 13 2 30 -7 12
-16 19 -21 16 -10 -6 -82 128 -78 143 5 13 -162 180 -218 218 l-51 35 8 42 c4
23 8 89 9 147 1 97 2 103 16 85 49 -63 56 -70 49 -50 -5 18 4 8 73 -74 11 -14
12 -13 3 4 -5 11 -19 29 -30 39 -12 11 -21 25 -21 32 0 7 -22 31 -49 53 -34
29 -48 48 -48 66 0 22 2 23 21 13 11 -6 34 -20 51 -32 16 -11 35 -20 42 -18 6
1 14 -2 18 -8 3 -5 12 -10 18 -10 7 0 -4 14 -23 30 -19 16 -30 30 -23 30 19 0
74 -51 71 -67 -2 -8 8 -22 22 -31 17 -11 21 -11 13 -2 -24 26 -13 33 15 9 17
-15 14 -10 -8 14 -39 43 -144 130 -204 171 -45 30 -84 101 -115 208 -22 77
-25 73 69 117 72 34 113 38 168 16 l37 -15 -25 20 c-29 22 -14 28 16 5 10 -8
26 -15 35 -15 9 0 34 -13 55 -28 56 -40 74 -49 39 -18 -53 46 -142 86 -198 88
-42 1 -67 -6 -134 -38 -46 -22 -83 -37 -83 -33 0 4 7 10 16 13 8 3 12 10 9 16
-4 6 1 7 11 3 11 -4 15 -3 10 5 -4 7 7 18 26 27 29 14 30 14 14 0 -11 -8 -24
-15 -30 -15 -5 0 -7 -2 -4 -5 3 -3 35 9 72 26 70 33 91 50 30 24 -54 -22 -55
-17 -4 10 33 17 62 24 105 25 37 0 55 4 47 9 -19 11 62 31 128 31 35 0 49 4
44 11 -4 8 -29 9 -78 4 -124 -12 -198 -30 -354 -87 -91 -34 -120 -29 -79 13
46 48 122 113 132 114 6 1 23 5 39 10 29 8 29 8 8 16 -12 5 -30 5 -39 2 -12
-5 -14 -3 -8 8 7 11 5 11 -11 -1 -10 -8 -23 -21 -27 -27 -11 -18 -27 -16 -27
2 0 8 4 15 8 15 5 0 17 6 28 14 28 22 -5 14 -39 -8 -22 -15 -30 -16 -43 -6 -8
7 -13 19 -10 26 7 19 -5 25 -23 11 -14 -10 -14 -10 -4 4 7 8 33 25 58 38 25
12 45 24 45 27 0 7 -74 -26 -101 -46 -20 -14 -29 -16 -38 -7 -8 8 -16 5 -29
-13 -9 -14 -17 -29 -17 -33 0 -11 -47 -46 -61 -47 -6 0 -29 14 -52 32 l-42 32
38 39 c20 21 56 49 79 63 39 23 155 65 171 63 21 -3 32 2 26 13 -5 7 -3 8 7 2
23 -14 41 -14 35 2 -4 11 -2 12 14 2 10 -7 23 -9 27 -5 4 5 1 12 -7 17 -9 6
-10 10 -3 10 6 0 15 -4 18 -10 10 -16 25 -12 19 5 -9 21 25 19 42 -2 13 -17
14 -17 7 2 -6 18 -5 19 12 5 17 -14 18 -13 12 3 -4 10 -7 21 -7 23 0 2 -9 4
-20 4 -11 0 -20 5 -20 10 0 6 -4 10 -10 10 -5 0 -7 -6 -4 -14 8 -21 -27 -25
-51 -7 -18 15 -19 15 -6 -1 12 -16 11 -18 -3 -18 -9 0 -16 5 -16 11 0 7 -11 8
-30 4 -21 -5 -30 -3 -30 6 0 7 3 10 6 7 3 -4 25 2 49 13 24 10 50 16 59 13 9
-3 16 -1 16 6 0 6 5 8 10 5 6 -3 10 -1 10 4 0 6 8 11 17 11 9 0 13 3 10 7 -4
3 -71 7 -150 8 -140 2 -143 2 -169 28 -15 15 -35 27 -45 27 -10 0 -29 8 -42
17 -16 10 -21 12 -16 3 6 -10 4 -12 -7 -7 -22 8 -112 -17 -173 -48 -27 -15
-43 -20 -35 -12 8 8 44 30 80 48 57 30 74 34 140 34 55 -1 88 -6 123 -22 26
-12 47 -20 47 -18 0 11 -85 46 -125 52 -25 3 -42 10 -39 15 4 6 -3 5 -14 -1
-11 -6 -28 -11 -36 -11 -29 0 -17 18 20 30 33 11 67 10 124 -4 21 -5 22 -5 5
3 -19 9 -19 10 4 10 22 1 100 -40 147 -78 11 -9 5 -2 -13 15 -24 22 -30 34
-21 38 7 3 2 3 -11 0 -14 -4 -21 -2 -18 3 18 28 -167 48 -233 25 -32 -10 -33
-10 -16 3 11 8 24 15 29 15 5 0 21 8 35 18 38 26 96 41 188 48 66 5 82 3 93
-10 7 -9 21 -16 30 -15 11 0 10 3 -6 11 -13 6 -23 15 -23 20 0 15 -130 8 -232
-12 -169 -35 -300 -101 -425 -214 -65 -59 -154 -183 -194 -271 -36 -79 -57
-85 -85 -23 -10 24 -36 69 -57 102 l-39 59 26 72 c48 135 71 175 122 211 55
39 47 47 -9 9 -72 -49 -32 11 48 73 21 16 17 14 -13 -4 -23 -15 -44 -25 -46
-23 -3 2 3 20 11 39 9 19 17 37 18 40 8 30 22 61 46 102 16 26 27 48 26 48 -1
0 -13 -7 -25 -16z m-68 -119 c-10 -8 -16 -15 -12 -15 4 0 0 -9 -9 -20 -22 -25
-26 -20 -12 18 6 17 18 33 27 35 25 5 28 -2 6 -18z m-40 -97 c-16 -18 -30 -35
-31 -37 -2 -2 -3 1 -3 6 0 14 42 63 54 63 6 0 -3 -15 -20 -32z m-439 -79 c14
-22 -3 -18 -26 7 -23 25 -23 26 -2 15 12 -6 25 -16 28 -22z m1015 -27 c0 -4
-17 -14 -37 -22 -59 -23 -61 -23 -18 4 42 27 55 31 55 18z m-80 -5 c0 -2 -10
-12 -22 -23 l-23 -19 19 23 c18 21 26 27 26 19z m-800 -28 c0 -6 -4 -7 -10 -4
-5 3 -10 11 -10 16 0 6 5 7 10 4 6 -3 10 -11 10 -16z m1004 -59 l29 -30 -34 0
c-19 0 -52 -9 -74 -20 -22 -11 -47 -20 -57 -20 -9 0 -19 -4 -22 -8 -8 -13 37
-8 64 7 l25 14 -19 -22 c-11 -11 -14 -21 -8 -21 6 0 19 11 30 25 13 16 30 25
48 25 26 0 24 -3 -26 -32 -30 -17 -70 -42 -87 -56 -18 -13 -33 -19 -33 -13 0
6 5 11 11 11 5 0 7 5 3 12 -4 6 -3 8 3 5 6 -4 19 1 29 9 17 14 17 15 2 10 -10
-3 -18 -1 -18 3 0 8 -22 9 -78 2 -7 0 -11 -5 -7 -10 7 -13 -34 -41 -60 -41
-12 0 -16 -3 -9 -8 8 -5 4 -19 -13 -45 -29 -45 -37 -43 -28 7 5 23 11 33 19
29 8 -5 8 -3 0 8 -8 10 -8 27 3 65 13 46 19 53 68 78 61 33 103 44 165 45 37
0 50 -5 74 -29z m46 -10 c0 -6 -9 -5 -20 2 -11 7 -20 16 -20 21 0 4 9 3 20 -3
11 -6 20 -15 20 -20z m-973 -24 c-2 -6 3 -16 12 -23 14 -10 13 -11 -6 -6 -12
3 -28 12 -34 19 -10 12 -8 13 7 8 18 -7 18 -7 2 13 -25 27 -23 40 2 18 11 -10
19 -23 17 -29z m-61 1 c5 -1 9 -8 11 -15 1 -10 -4 -8 -18 4 -10 9 -19 22 -19
28 0 6 4 5 9 -2 4 -8 12 -14 17 -15z m1258 -8 c-6 -11 -44 -12 -44 -1 0 4 11
8 25 8 14 1 22 -2 19 -7z m-54 -9 c0 -5 -4 -10 -9 -10 -6 0 -13 5 -16 10 -3 6
1 10 9 10 9 0 16 -4 16 -10z m-1680 -10 c-14 -4 -34 -8 -45 -8 l-20 -1 20 9
c11 5 31 8 45 8 l25 0 -25 -8z m285 -10 c8 -13 -5 -13 -25 0 -13 8 -13 10 2
10 9 0 20 -4 23 -10z m-97 -6 c13 -4 21 -12 18 -19 -2 -7 0 -17 6 -23 6 -6 -5
-6 -31 1 -22 6 -38 13 -36 15 3 3 -3 11 -13 18 -15 12 -15 13 8 14 14 0 35 -3
48 -6z m82 -16 c24 -14 30 -23 21 -26 -8 -3 -17 0 -19 7 -2 6 -8 11 -14 11 -5
0 -16 7 -24 15 -22 22 -5 18 36 -7z m55 13 c-3 -6 4 -15 16 -21 11 -7 18 -14
16 -17 -3 -2 -17 3 -32 13 -20 13 -23 19 -13 25 17 11 20 11 13 0z m205 -31
c-1 -12 -4 -11 -15 4 -8 10 -12 23 -8 29 7 11 23 -12 23 -33z m926 25 c-11 -8
-24 -15 -29 -15 -4 0 -5 -4 -2 -10 3 -5 1 -10 -6 -10 -7 0 -21 -7 -31 -17 -10
-9 -21 -13 -25 -9 -7 7 20 30 71 59 37 21 48 22 22 2z m144 3 c0 -4 -4 -8 -9
-8 -6 0 -12 4 -15 8 -3 5 1 9 9 9 8 0 15 -4 15 -9z m-75 -14 c-11 -8 -18 -18
-15 -22 3 -4 -4 -8 -15 -10 -11 -2 -26 -9 -33 -15 -7 -5 -16 -7 -19 -3 -4 4
-1 11 7 16 13 9 13 10 0 10 -29 1 35 40 65 39 29 0 29 0 10 -15z m-1412 -1
c-7 -2 -19 -2 -25 0 -7 3 -2 5 12 5 14 0 19 -2 13 -5z m1507 -3 c0 -5 -5 -10
-11 -10 -5 0 -7 5 -4 10 3 6 8 10 11 10 2 0 4 -4 4 -10z m-1520 -14 c26 -9 37
-15 25 -17 -14 -1 -11 -4 10 -9 24 -6 25 -8 8 -9 -20 -1 -103 35 -103 45 0 7
13 4 60 -10z m-60 -18 c0 -6 -10 -8 -22 -4 -13 3 -41 6 -63 7 l-40 2 45 6 c51
7 80 3 80 -11z m380 -25 c16 -27 38 -53 48 -60 23 -14 73 -81 51 -68 -7 4 -4
-2 8 -13 27 -26 39 -83 24 -109 -11 -17 -11 -17 -9 2 2 11 -2 19 -9 18 -6 -2
-25 11 -42 27 -30 30 -48 40 -35 18 4 -7 3 -8 -5 -4 -6 4 -9 11 -6 16 3 5 -14
25 -37 45 -39 34 -40 36 -11 21 17 -9 51 -36 75 -62 23 -25 44 -40 46 -34 3 7
9 7 20 -2 9 -7 6 1 -7 20 -12 17 -25 32 -28 32 -3 0 0 -7 7 -15 22 -26 5 -26
-20 0 -15 16 -19 25 -10 25 19 0 3 13 -18 15 -17 1 -132 82 -132 92 0 3 15 -6
33 -20 29 -22 34 -23 43 -9 11 16 34 9 34 -10 0 -7 -6 -6 -15 2 -26 22 -16 4
12 -21 21 -18 24 -19 13 -4 -11 16 -9 15 12 -4 15 -13 32 -21 40 -19 12 4 -69
90 -114 120 -13 9 -17 19 -13 31 4 9 9 17 11 17 2 0 17 -21 34 -47z m150 37
c0 -5 -2 -10 -4 -10 -3 0 -8 5 -11 10 -3 6 -1 10 4 10 6 0 11 -4 11 -10z
m-325 -10 c3 -5 1 -10 -4 -10 -6 0 -11 5 -11 10 0 6 2 10 4 10 3 0 8 -4 11
-10z m80 0 c3 -5 1 -10 -4 -10 -6 0 -11 5 -11 10 0 6 2 10 4 10 3 0 8 -4 11
-10z m1245 -10 c-6 -11 -16 -20 -23 -21 -7 0 -20 -2 -29 -4 -14 -3 -16 0 -8
15 11 20 25 28 53 29 15 1 16 -2 7 -19z m-1360 -15 c0 -9 -6 -12 -15 -9 -8 4
-15 10 -15 15 0 5 7 9 15 9 8 0 15 -7 15 -15z m360 -29 c0 -6 -7 -2 -15 8 -8
11 -15 25 -15 30 0 6 7 2 15 -8 8 -11 15 -25 15 -30z m624 -13 c-31 -46 -34
-49 -34 -35 0 10 48 72 56 72 2 0 -8 -17 -22 -37z m296 34 c0 -2 -8 -11 -18
-20 -17 -15 -18 -15 -19 3 -1 14 5 20 18 20 10 0 19 -2 19 -3z m-1205 -33 l30
-26 -32 16 c-17 9 -35 20 -38 26 -11 18 9 10 40 -16z m997 12 c7 4 8 2 4 -5
-4 -6 -12 -8 -18 -5 -6 4 -9 3 -6 -2 4 -5 -10 -27 -29 -49 -30 -34 -32 -35
-13 -7 12 18 23 38 24 45 3 22 19 42 24 29 2 -7 9 -9 14 -6z m-192 -20 c0 -8
-4 -18 -10 -21 -5 -3 -10 3 -10 14 0 12 5 21 10 21 6 0 10 -6 10 -14z m250 -1
c0 -2 -10 -9 -22 -15 -22 -11 -22 -10 -4 4 21 17 26 19 26 11z m90 1 c0 -3 -4
-8 -10 -11 -5 -3 -10 -1 -10 4 0 6 5 11 10 11 6 0 10 -2 10 -4z m-115 -56
c-29 -30 -49 -36 -73 -21 -10 6 -10 10 3 21 13 11 15 10 10 -2 -9 -24 27 -18
50 8 11 13 24 24 29 24 6 0 -3 -13 -19 -30z m235 -55 c0 -2 -10 -10 -22 -16
-21 -11 -22 -11 -9 4 13 16 31 23 31 12z m-822 -41 c-3 -14 -5 -12 -10 9 -3
19 -2 25 4 19 6 -6 8 -18 6 -28z m807 1 c-35 -29 -65 -48 -65 -40 0 6 80 65
89 65 3 0 -7 -11 -24 -25z m69 -6 c-8 -14 -21 -11 -21 5 0 8 6 12 14 9 7 -3
10 -9 7 -14z m166 7 c0 -2 -7 -7 -16 -10 -8 -3 -12 -2 -9 4 6 10 25 14 25 6z
m-230 -29 c0 -2 -10 -12 -22 -23 l-23 -19 19 23 c18 21 26 27 26 19z m110 -6
c0 -5 -7 -14 -15 -21 -16 -14 -18 -10 -9 14 6 17 24 22 24 7z m-1175 -11 c3
-5 -1 -10 -9 -10 -9 0 -16 5 -16 10 0 6 4 10 9 10 6 0 13 -4 16 -10z m1129
-33 c-3 -8 -12 -18 -20 -21 -11 -4 -11 0 2 20 18 26 28 27 18 1z m-54 -11 c0
-2 -8 -10 -17 -17 -16 -13 -17 -12 -4 4 13 16 21 21 21 13z m-1140 -66 c8 -5
11 -12 7 -16 -4 -4 -15 0 -24 9 -18 18 -8 23 17 7z m-683 -196 c-3 -3 -12 -4
-19 -1 -8 3 -5 6 6 6 11 1 17 -2 13 -5z m1869 -9 c10 -8 15 -15 10 -15 -6 0
-3 -6 6 -12 8 -7 22 -32 31 -55 19 -48 14 -51 -42 -32 -27 10 -31 16 -32 47 0
21 -2 47 -5 60 -5 26 4 28 32 7z m-1802 -11 c9 -3 16 -10 16 -14 0 -10 -38 -1
-46 11 -6 10 7 12 30 3z m86 -4 c22 -7 21 -8 -12 -9 -21 -1 -38 4 -38 9 0 11
14 11 50 0z m188 -14 c35 -8 66 -17 70 -21 8 -8 -44 1 -128 20 -73 18 -22 18
58 1z m-360 -63 c-10 -2 -26 -2 -35 0 -10 3 -2 5 17 5 19 0 27 -2 18 -5z m162
-3 c11 -8 7 -9 -15 -4 -37 8 -45 14 -19 14 10 0 26 -5 34 -10z m75 -60 c-3 -5
-14 -10 -23 -10 -15 0 -15 2 -2 10 20 13 33 13 25 0z m1720 -38 c-3 -3 -11 0
-18 7 -9 10 -8 11 6 5 10 -3 15 -9 12 -12z m-1611 1 c3 -4 -4 -13 -16 -20 -21
-12 -20 -13 17 -8 l40 6 -35 -20 c-19 -11 -43 -20 -53 -21 -20 0 -110 -50
-104 -57 3 -2 22 6 43 18 64 36 26 7 -91 -71 -60 -41 -104 -66 -96 -57 8 10
43 36 78 59 35 22 61 43 58 46 -2 3 -16 -3 -31 -13 -24 -15 -26 -15 -21 -2 3
9 1 19 -4 23 -6 4 1 14 18 25 15 10 24 19 20 19 -15 0 -72 -33 -109 -63 -21
-17 -40 -28 -43 -25 -8 8 70 58 180 115 96 49 134 61 149 46z m1721 -43 c3 -5
2 -10 -4 -10 -5 0 -13 5 -16 10 -3 6 -2 10 4 10 5 0 13 -4 16 -10z m-102 -11
c7 0 3 -4 -8 -9 -17 -7 -17 -9 -2 -9 9 -1 17 -6 17 -12 0 -20 -33 -4 -41 20
-8 19 -6 22 7 17 8 -3 21 -6 27 -7z m157 -14 c10 -13 9 -15 -8 -15 -15 0 -20
5 -16 15 4 8 7 15 9 15 1 0 8 -7 15 -15z m-1745 -99 c-36 -36 -70 -66 -77 -66
-10 0 -9 -3 1 -9 10 -6 3 -12 -25 -21 -41 -13 -107 -42 -215 -95 -36 -18 -83
-38 -103 -45 -20 -6 -34 -15 -31 -20 3 -5 0 -12 -6 -16 -8 -4 -9 -3 -5 4 4 7
3 12 -3 12 -5 0 -11 -8 -13 -17 -3 -14 -5 -15 -11 -5 -12 18 55 82 85 82 16 0
19 3 10 9 -28 17 201 181 310 223 46 17 137 38 146 33 1 -1 -27 -32 -63 -69z
m1582 56 c7 -4 9 -13 4 -21 -10 -16 -31 -6 -31 15 0 16 9 18 27 6z m-1837 -42
c0 -7 -41 -40 -125 -100 l-30 -22 25 22 c14 12 25 26 25 30 0 4 11 18 25 29
23 20 23 21 3 11 -38 -18 -26 -3 19 24 39 23 58 26 58 6z m309 17 c-2 -1 -15
-11 -29 -22 l-25 -20 19 23 c11 12 24 22 29 22 6 0 8 -1 6 -3z m-429 -34 c0
-11 -42 -53 -53 -53 -6 0 -2 9 8 20 10 11 15 20 11 20 -4 0 -4 5 -1 10 7 11
35 14 35 3z m-45 -23 c-3 -5 -11 -10 -16 -10 -6 0 -7 5 -4 10 3 6 11 10 16 10
6 0 7 -4 4 -10z m2165 0 c0 -5 -2 -10 -4 -10 -3 0 -8 5 -11 10 -3 6 -1 10 4
10 6 0 11 -4 11 -10z m-2215 -60 c-10 -11 -21 -17 -25 -15 -4 3 -10 -5 -13
-16 -3 -12 -10 -18 -16 -14 -6 3 -14 -1 -17 -9 -3 -9 -11 -16 -17 -16 -6 0 4
16 23 35 18 19 36 32 41 30 4 -3 9 2 13 10 3 8 11 15 17 15 7 0 5 -8 -6 -20z
m45 -41 c0 -5 -4 -9 -8 -9 -5 0 -9 7 -9 15 0 8 4 12 9 9 4 -3 8 -9 8 -15z
m-50 1 c0 -5 -5 -10 -11 -10 -5 0 -7 5 -4 10 3 6 8 10 11 10 2 0 4 -4 4 -10z
m-40 -34 c0 -2 -18 -24 -40 -47 -22 -24 -40 -39 -40 -33 0 5 5 15 12 22 7 7 9
12 5 12 -4 0 -3 9 3 20 6 11 16 20 22 20 6 0 7 -5 2 -13 -5 -7 -2 -5 6 5 14
16 30 24 30 14z m25 -56 c-10 -11 -23 -20 -29 -20 -6 1 0 10 13 20 30 26 39
26 16 0z m-110 -70 c-16 -16 -30 -28 -33 -26 -8 9 31 56 46 56 11 0 8 -8 -13
-30z m35 2 c0 -4 -10 -13 -22 -21 -23 -14 -23 -14 -4 8 20 22 26 25 26 13z
m-77 -77 c-3 -9 -8 -14 -10 -11 -3 3 -2 9 2 15 9 16 15 13 8 -4z m2683 -538
c4 -4 -2 -7 -14 -7 -12 0 -22 4 -22 9 0 10 26 9 36 -2z m54 -7 c0 -5 -2 -10
-4 -10 -3 0 -8 5 -11 10 -3 6 -1 10 4 10 6 0 11 -4 11 -10z m-3156 -142 c-15
-29 -29 -47 -31 -40 -5 13 46 107 54 99 2 -3 -8 -29 -23 -59z m127 -1384 c1
-16 -4 -51 -10 -79 -8 -32 -8 -57 -2 -70 5 -11 19 -72 30 -135 16 -91 21 -151
19 -285 -2 -230 29 -361 149 -635 31 -69 68 -172 83 -230 16 -58 40 -139 55
-180 42 -117 157 -346 219 -437 l55 -82 -14 -41 c-8 -22 -17 -93 -20 -158 -10
-223 -33 -372 -77 -511 -27 -85 -35 -99 -87 -151 -61 -60 -63 -61 -189 -74
-38 -5 -43 -2 -57 24 -16 31 -21 79 -17 169 3 76 20 54 31 -40 l8 -74 3 65 c1
36 6 76 10 90 7 21 8 18 10 -20 l2 -45 9 35 c4 19 11 68 15 108 4 44 10 68 15
61 6 -10 10 -8 14 6 4 11 11 28 16 37 5 10 9 27 9 39 0 11 16 49 35 83 33 59
35 68 35 156 0 51 -3 90 -7 87 -3 -4 -19 55 -34 131 -17 85 -55 217 -99 343
l-71 204 -44 305 c-51 350 -63 414 -141 715 l-56 220 21 135 c12 74 31 168 43
208 21 72 38 84 39 26z m-134 -206 c-2 -13 -4 -3 -4 22 0 25 2 35 4 23 2 -13
2 -33 0 -45z m62 -658 c23 -96 47 -193 53 -215 6 -22 12 -114 14 -205 3 -188
21 -544 34 -670 8 -81 9 -79 5 35 -3 66 -7 174 -10 240 l-4 120 19 -100 c26
-135 68 -465 76 -595 6 -97 5 -111 -20 -182 -15 -45 -26 -98 -26 -130 0 -29
-3 -64 -7 -78 -12 -46 -31 56 -20 111 6 32 6 53 -2 65 -9 15 -9 12 -4 -16 3
-19 2 -31 -3 -27 -4 4 -9 34 -10 65 -1 31 -20 136 -44 232 -95 399 -125 622
-116 870 3 96 9 284 12 418 4 133 8 241 9 240 2 -2 21 -82 44 -178z m2969
-280 l0 -65 -14 65 c-7 36 -10 79 -7 95 l7 30 7 -30 c4 -16 7 -59 7 -95z
m-2863 -318 c9 -73 15 -135 13 -138 -6 -5 -35 166 -42 246 -10 105 11 25 29
-108z m2759 -147 c10 -77 21 -171 25 -210 8 -74 2 -580 -6 -571 -3 3 -25 83
-48 178 -31 125 -40 175 -31 180 7 5 7 8 -3 8 -11 0 -10 5 4 20 17 19 17 19
-4 15 -11 -2 -21 0 -21 6 0 5 5 9 11 9 5 0 7 5 4 10 -4 6 -1 19 6 28 13 16 12
16 -7 0 -20 -17 -20 -17 -37 50 -24 95 -23 101 1 166 13 32 34 108 49 169 15
67 28 105 33 96 4 -8 15 -77 24 -154z m-2737 -37 c-3 -8 -6 -5 -6 6 -1 11 2
17 5 13 3 -3 4 -12 1 -19z m2628 -38 c-10 -22 -20 -38 -23 -35 -3 3 3 23 13
45 10 22 20 38 23 35 3 -3 -3 -23 -13 -45z m-20 -190 c5 -60 5 -63 -9 -40 -15
28 -19 48 -17 100 2 54 18 16 26 -60z m-5 -132 c0 -5 -7 -8 -15 -8 -17 0 -30
59 -19 92 6 20 9 17 20 -27 8 -27 14 -53 14 -57z m4 -27 c3 -5 0 -11 -8 -14
-15 -6 -26 1 -26 15 0 11 27 10 34 -1z m297 -605 c1 -19 2 -18 9 4 l7 25 7
-30 c4 -16 11 -37 15 -45 5 -9 12 -36 17 -60 7 -43 8 -44 14 -15 l6 30 8 -33
c4 -18 5 -36 2 -39 -12 -12 -79 42 -111 90 -40 59 -41 62 -19 118 l17 41 13
-32 c8 -18 14 -42 15 -54z m146 -192 c-11 -11 -37 10 -36 30 0 20 1 20 9 1 8
-18 9 -18 10 5 l2 25 10 -28 c5 -16 8 -30 5 -33z m-2982 -243 c3 -5 1 -12 -5
-16 -5 -3 -10 1 -10 9 0 18 6 21 15 7z m-35 -15 c0 -3 -4 -8 -10 -11 -5 -3
-10 -1 -10 4 0 6 5 11 10 11 6 0 10 -2 10 -4z"/>
<path d="M5938 12129 c21 -6 39 -6 50 0 13 8 5 10 -33 10 -48 -1 -49 -1 -17
-10z"/>
<path d="M5868 12123 c6 -2 18 -2 25 0 6 3 1 5 -13 5 -14 0 -19 -2 -12 -5z"/>
<path d="M5790 12110 c-9 -6 -10 -10 -3 -10 6 0 15 5 18 10 8 12 4 12 -15 0z"/>
<path d="M5778 12043 c7 -3 16 -2 19 1 4 3 -2 6 -13 5 -11 0 -14 -3 -6 -6z"/>
<path d="M4960 12016 c0 -2 8 -10 18 -17 15 -13 16 -12 3 4 -13 16 -21 21 -21
13z"/>
<path d="M4459 11139 c-19 -16 -20 -18 -4 -10 34 17 51 31 39 31 -7 0 -22 -9
-35 -21z"/>
<path d="M3768 6593 c-2 -5 0 -39 3 -78 l5 -70 2 78 c2 70 -1 90 -10 70z"/>
<path d="M3783 6315 c0 -22 2 -30 4 -17 2 12 2 30 0 40 -3 9 -5 -1 -4 -23z"/>
<path d="M4768 12353 c7 -3 16 -2 19 1 4 3 -2 6 -13 5 -11 0 -14 -3 -6 -6z"/>
<path d="M4805 12349 c-4 -6 -4 -13 -1 -16 8 -8 36 5 36 17 0 13 -27 13 -35
-1z"/>
<path d="M4917 12329 c7 -7 15 -10 18 -7 3 3 -2 9 -12 12 -14 6 -15 5 -6 -5z"/>
<path d="M6171 12177 c2 -1 13 -9 24 -17 19 -14 19 -14 6 3 -7 9 -18 17 -24
17 -6 0 -8 -1 -6 -3z"/>
<path d="M6445 12050 c3 -5 11 -10 16 -10 6 0 7 5 4 10 -3 6 -11 10 -16 10 -6
0 -7 -4 -4 -10z"/>
<path d="M6520 12051 c0 -5 5 -13 10 -16 6 -3 10 -2 10 4 0 5 -4 13 -10 16 -5
3 -10 2 -10 -4z"/>
<path d="M6465 12020 c3 -5 11 -10 16 -10 6 0 7 5 4 10 -3 6 -11 10 -16 10 -6
0 -7 -4 -4 -10z"/>
<path d="M6530 12005 c14 -8 30 -14 35 -14 6 0 -1 6 -15 14 -14 8 -29 14 -35
14 -5 0 1 -6 15 -14z"/>
<path d="M6320 11925 c0 -15 18 -40 24 -34 3 3 -1 14 -9 25 -8 10 -14 15 -15
9z"/>
<path d="M6290 11909 c0 -5 5 -7 10 -4 6 3 10 8 10 11 0 2 -4 4 -10 4 -5 0
-10 -5 -10 -11z"/>
<path d="M6224 11858 l-19 -21 28 18 c28 18 33 25 19 25 -5 0 -17 -10 -28 -22z"/>
<path d="M6244 11840 c-12 -5 -25 -14 -29 -20 -4 -7 5 -5 22 4 17 8 44 13 61
11 17 -2 33 -1 36 3 6 10 -66 12 -90 2z"/>
<path d="M6420 11837 c0 -2 14 -16 30 -32 24 -23 30 -25 30 -11 0 9 -4 15 -9
11 -6 -3 -15 4 -21 15 -9 16 -30 28 -30 17z"/>
<path d="M6388 11823 c7 -3 16 -2 19 1 4 3 -2 6 -13 5 -11 0 -14 -3 -6 -6z"/>
<path d="M6718 11723 c7 -3 16 -2 19 1 4 3 -2 6 -13 5 -11 0 -14 -3 -6 -6z"/>
<path d="M6707 11699 c7 -7 15 -10 18 -7 3 3 -2 9 -12 12 -14 6 -15 5 -6 -5z"/>
<path d="M6600 11676 c0 -2 9 -6 20 -9 11 -3 18 -1 14 4 -5 9 -34 13 -34 5z"/>
<path d="M6473 11653 c9 -2 25 -2 35 0 9 3 1 5 -18 5 -19 0 -27 -2 -17 -5z"/>
<path d="M6568 11633 c7 -3 16 -2 19 1 4 3 -2 6 -13 5 -11 0 -14 -3 -6 -6z"/>
<path d="M4830 11610 c0 -5 7 -7 15 -4 8 4 15 8 15 10 0 2 -7 4 -15 4 -8 0
-15 -4 -15 -10z"/>
<path d="M4866 11602 c-2 -4 12 -6 32 -4 62 6 69 10 20 11 -26 0 -49 -3 -52
-7z"/>
<path d="M6363 11559 c-18 -5 -33 -12 -33 -15 0 -8 74 7 85 17 11 11 -9 10
-52 -2z"/>
<path d="M4895 11550 c-13 -5 -14 -9 -5 -9 8 0 24 4 35 9 13 5 14 9 5 9 -8 0
-24 -4 -35 -9z"/>
<path d="M6525 11544 c17 -9 40 -26 52 -37 33 -30 38 -15 5 16 -15 14 -40 28
-57 32 l-30 6 30 -17z"/>
<path d="M4922 11533 c-48 -23 -32 -27 19 -3 24 11 37 20 29 20 -8 0 -30 -8
-48 -17z"/>
<path d="M4809 11493 l-34 -38 38 34 c20 19 37 36 37 38 0 8 -8 0 -41 -34z"/>
<path d="M4009 11273 c-13 -16 -12 -17 4 -4 16 13 21 21 13 21 -2 0 -10 -8
-17 -17z"/>
<path d="M6360 11136 c0 -2 8 -10 18 -17 15 -13 16 -12 3 4 -13 16 -21 21 -21
13z"/>
<path d="M6470 11048 c41 -45 50 -53 50 -45 0 2 -21 23 -47 47 l-48 45 45 -47z"/>
<path d="M6410 10992 c0 -5 7 -15 15 -22 9 -7 23 -28 31 -47 9 -18 19 -32 21
-29 7 6 -33 80 -51 95 -9 8 -16 9 -16 3z"/>
<path d="M6630 10997 c0 -2 15 -16 33 -33 l32 -29 -29 33 c-28 30 -36 37 -36
29z"/>
<path d="M6606 10967 c3 -10 9 -15 12 -12 3 3 0 11 -7 18 -10 9 -11 8 -5 -6z"/>
<path d="M6812 7490 c0 -14 2 -19 5 -12 2 6 2 18 0 25 -3 6 -5 1 -5 -13z"/>
<path d="M6822 7440 c0 -14 2 -19 5 -12 2 6 2 18 0 25 -3 6 -5 1 -5 -13z"/>
</g>
</svg>
